<svg width="477" height="88" viewBox="0 0 477 88" fill="none" xmlns="http://www.w3.org/2000/svg">
<g clip-path="url(#clip0_617_836)">
<path d="M150.346 19.5189L163.368 26.5592L165.455 23.1346L156.71 14.8449L162.192 10.803L153.623 6.09961L135.442 26.6915H140.571L150.346 19.5189Z" fill="#DAFF6A"/>
<path d="M139.704 35.5248L146.745 34.8928L145.833 40.0371L138.925 40.2576L137.691 46.5336L144.819 45.7399L142.717 57.6747L133.693 59.1004L132.091 68.1837L160.678 59.1886V54.8527L148.891 56.7046L152.051 44.9462L161.501 43.9027L162.192 39.5374L153.418 39.8019L154.946 34.1579L162.192 33.5112L163.53 28.8813L140.939 28.4551L139.704 35.5248Z" fill="#DAFF6A"/>
<path d="M177.993 19.4603L188.399 7.59905L178.639 3.13086L166.396 26.5595L184.401 25.2072L178.977 57.778L167.689 64.0246L167.204 66.7878L184.445 65.0094L196.924 17.138L177.993 19.4603Z" fill="#DAFF6A"/>
<path d="M179.668 46.2104L171.114 31.0127L164.618 36.4509L174.642 50.5022L179.668 46.2104Z" fill="#DAFF6A"/>
<path d="M234.374 57.7925L242.311 66.5084L247.088 64.9798L241.591 56.9106L234.374 57.7925Z" fill="#DAFF6A"/>
<path d="M229.142 57.4839L221.763 59.1742L230.009 67.0964L234.903 65.4061L229.142 57.4839Z" fill="#DAFF6A"/>
<path d="M209.226 59.9971L218.089 68.4044L221.925 66.3907L217.251 57.9541L209.226 59.9971Z" fill="#DAFF6A"/>
<path d="M192.705 66.5083L198.481 68.4631L206.492 60.3645L200.583 56.9546L192.705 66.5083Z" fill="#DAFF6A"/>
<path d="M140.072 57.2782L142.35 54.2358L137.441 49.0474L134.472 53.3833L140.072 57.2782Z" fill="#DAFF6A"/>
<path d="M153.682 55.5582L160.575 49.1646L156.636 46.1221L150.404 53.6033L153.682 55.5582Z" fill="#DAFF6A"/>
<path d="M213.444 18.8867H227.011L220.441 25.6625L203.053 26.8677L200.539 52.6186L238.769 51.6045L246.691 23.84L230.362 24.9717L245.28 12.8312H222.792L233.492 5.89372L221.999 0.631836L199.834 24.9129L201.465 26.6473L213.444 18.872V18.8867ZM219.338 31.9092L218.471 36.8183L207.668 37.1563L208.227 31.9092H219.338ZM207.109 42.2712H217.501L216.751 46.563H206.654L207.109 42.2712ZM222.101 46.5483L223.277 42.2565H233.933L232.581 46.5483H222.087H222.101ZM235.815 36.2745L224.821 36.6272L226.114 31.9238H237.196L235.829 36.2745H235.815Z" fill="#DAFF6A"/>
<path d="M295.488 31.0127H271.31L279.776 20.2244H296.15L291.682 26.7797H297.002L309.334 14.1688H284.524L293.828 2.32223L283.157 0.0146484L273.618 14.1835H254.76L251.527 26.7944H255.598L260.757 20.2391H269.532L262.271 31.0274H250.777L248.337 39.1113L257.23 38.5234L252.188 46.0046L263.917 52.9715L232.419 86.9238L233.14 87.6293L268.371 55.6318L286.846 66.6112L289.962 63.2895L272.633 51.7663L295.459 31.0421L295.488 31.0127ZM261.066 44.0351L265.872 37.9208L278.674 37.0683L267.959 48.6209L261.066 44.0498V44.0351Z" fill="#DAFF6A"/>
<path d="M323.267 49.2235L337.554 48.2828L338.348 43.7852H324.237L325.663 35.6866L338.95 35.0693L339.788 31.9974L348.019 36.6126L350.415 33.4819L328 15.4916L334.394 9.96513L325.693 4.08594L293.195 41.7569L295.459 43.6382L306.159 34.3932L305.762 36.6126L319.564 35.9659L318.182 43.7852H304.072L302.396 50.6198L317.153 49.635L315.727 57.7042H297.061L295.694 65.4941L340.067 62.8779L340.449 57.7042H321.783L323.282 49.2235H323.267ZM321.048 21.4884L337.245 30.5717L311.244 29.9544L321.048 21.4737V21.4884Z" fill="#DAFF6A"/>
<path d="M357.146 36.1716L349.9 39.508L348.181 49.2381L356.059 43.594L354.03 57.5424L348.578 62.7602L348.298 64.3476L359.792 59.218L363.555 38.244L368.39 34.79L369.125 30.6451L364.54 32.7616L366.347 22.6641L370.669 21.9292L371.492 17.27H367.317L368.626 9.97975L361.438 6.7168L359.895 17.27H353.825L352.458 25.0158L358.925 23.9134L357.146 36.1716Z" fill="#DAFF6A"/>
<path d="M381.148 12.42L379.34 23.7962L374.269 18.7107L370.757 26.192L378.017 32.1888L377.312 36.6422L366.7 42.0658L369.948 48.283L376.121 44.1529L374.901 51.8547L347.784 79.1782L348.607 80.2953L381.501 54.5297L389.952 8.64258L381.148 12.42Z" fill="#DAFF6A"/>
<path d="M405.9 44.8583L409.163 36.6128L396.375 35.9219L397.007 32.5414L412.058 25.0895L410.265 16.3295L398.536 24.4134L402.446 3.60107L393.024 8.64248L383.691 67.7725L405.958 53.295L405.018 51.6635L392.598 56.0288L395.155 42.3891L405.9 44.8583Z" fill="#DAFF6A"/>
<path d="M431.798 8.30425L418.79 9.56828L416.394 23.7665L428.887 21.9146L431.798 8.28955V8.30425ZM425.977 18.1225L420.906 18.8427L422.376 13.5661L427.271 13.0076L425.962 18.1372L425.977 18.1225Z" fill="#DAFF6A"/>
<path d="M443.894 21.1798L447.098 7.54004L433.987 8.83346L431.312 23.0464L443.894 21.1945V21.1798ZM437.647 12.8019L442.057 11.9641L440.675 17.2701L436.324 18.1226L437.647 12.8019Z" fill="#DAFF6A"/>
<path d="M441.087 56.9104L440.602 53.5005L428.74 55.6611L429.534 51.5897L440.469 50.2375L445.305 23.6636L415.924 26.853L411.338 53.8385L423.434 52.354L422.949 56.734L411.117 58.8946L409.442 65.9056L422.347 62.2458L421.288 71.9465L425.742 71.2557L427.785 60.7025L441.101 56.9251L441.087 56.9104ZM430.636 45.8722L431.518 41.2718L436.868 40.2135L436.178 44.9316L430.622 45.8575L430.636 45.8722ZM437.647 34.9222L432.635 35.4955L433.473 31.1742L438.294 30.4834L437.647 34.9222ZM425.624 32.306L425.183 36.3479L420.495 36.8771L421.097 32.9527L425.624 32.306ZM418.79 47.8565L419.437 43.6675L424.478 42.6681L424.008 46.9893L418.79 47.8565Z" fill="#DAFF6A"/>
<path d="M476.112 50.12L475.186 49.679L465.794 57.7482L464.265 45.1815L474.348 35.9952L470.012 30.6892L463.369 37.7737L462.355 29.2782L474.348 25.8536L473.172 21.988L461.664 23.6783L459.165 2.93945L450.199 8.96563L453.242 24.9129L447.657 25.736L446.334 33.864L454.506 31.527L456.99 44.5935L429.299 74.1365L430.666 75.8268L458.166 50.7667L462.604 74.1365L476.112 50.12Z" fill="#DAFF6A"/>
<path d="M473.172 16.2852L469.821 7.01074L462.134 10.2884L467.499 19.5775L473.172 16.2852Z" fill="#DAFF6A"/>
<path d="M41.5806 9.12744L29.6605 41.5659L23.7079 25.3981L14.213 43.6824L11.5232 14.5951L16.9174 9.12744H0L10.9941 62.8486L22.4732 41.7717L29.734 63.4071L54.5736 9.12744H41.5806Z" fill="#DAFF6A"/>
<path d="M51.7221 46.2694L68.8746 41.0663L65.303 29.646L55.4994 22.5615L42.918 45.1817L50.4727 57.7338L64.8474 50.2378L65.3618 48.3418L53.28 50.6935L51.7221 46.2547V46.2694ZM57.5131 31.8066L60.6584 33.9231L61.5403 37.5388L51.9866 40.1256L57.5131 31.8066Z" fill="#DAFF6A"/>
<path d="M98.2855 34.5109L81.1329 26.3682L84.2636 11.4057L76.2091 7.80469L68.0664 59.6445L86.4095 51.2813L98.2708 34.5109H98.2855ZM76.3561 49.253L79.5602 33.923L87.4237 38.3177L82.7791 45.7255L76.3561 49.253Z" fill="#DAFF6A"/>
<path d="M115.864 30.4247L134.766 9.00977L103.209 10.8176L97.9622 21.7088L115.791 18.8721L99.0058 38.2441L111.617 37.5974L81.0742 76.4147L82.0884 77.1349L132.209 29.4253L115.864 30.4247Z" fill="#DAFF6A"/>
</g>
<defs>
<clipPath id="clip0_617_836">
<rect width="476.112" height="87.6" fill="white"/>
</clipPath>
</defs>
</svg>
