<svg width="490" height="79" viewBox="0 0 490 79" fill="none" xmlns="http://www.w3.org/2000/svg">
<g clip-path="url(#clip0_617_835)">
<path d="M148.637 26.1118L150.261 19.5587L126.621 10.189L116.044 58.1299L124.537 55.2126L127.339 39.1605L148.623 26.1118H148.637ZM143.808 22.9646L143.535 23.9418L128.647 31.7451L130.918 18.754L143.808 22.979V22.9646Z" fill="#DAFF6A"/>
<path d="M255.34 49.1483L266.981 47.9699L267.096 44.1329L261.52 43.0982L262.08 31.7596L272.7 28.6124L267.943 51.2895C267.9 51.4907 267.785 51.6775 267.627 51.8212L259.077 60.3287L258.071 62.4844L248.385 73.0325L272.197 53.905C272.384 53.7757 272.513 53.5889 272.571 53.3589L281.107 18.6104L256.705 27.1897L255.326 49.1195L255.34 49.1483Z" fill="#DAFF6A"/>
<path d="M425.691 27.2038L424.312 49.1336L435.952 47.9552L436.067 44.1182L430.491 43.0835L431.052 31.745L441.672 28.5978L436.915 51.2749C436.872 51.4761 436.757 51.6629 436.599 51.8066L428.048 60.3141L427.042 62.4697L417.356 73.0179L441.169 53.8904C441.356 53.761 441.485 53.5742 441.542 53.3443L450.079 18.5957L425.677 27.1751L425.691 27.2038Z" fill="#DAFF6A"/>
<path d="M171.472 51.0883L178.643 21.2114L170.854 21.8437L167.046 52.0368L171.472 51.0883Z" fill="#DAFF6A"/>
<path d="M159.559 32.5498L157.317 52.3959L163.381 50.8869L167.923 23.6255L155.118 28.3823L160.536 1.5089L158.826 1.03467L143.119 52.3959L150.922 49.263L153.983 34.0444L159.559 32.5498Z" fill="#DAFF6A"/>
<path d="M206.652 28.3103L208.937 14.27L206.393 14.8449L195.256 53.4735L203.045 50.3407L205.689 34.1592L211.682 32.5497L209.44 52.3957L215.504 50.8868L220.045 23.6254L206.652 28.3103Z" fill="#DAFF6A"/>
<path d="M323.242 28.8997L327.036 14.0834L325.469 11.9996L327.18 0.301787L326.562 0L309.963 52.3959L317.767 50.3409L322.006 33.7282L326.404 32.5498L324.162 52.3959L330.226 50.887L334.767 23.6256L323.242 28.8997Z" fill="#DAFF6A"/>
<path d="M372.706 15.1611L366.872 10.1025L359.169 49.7228L368.898 49.5216L364.371 46.8486L372.706 15.1611Z" fill="#DAFF6A"/>
<path d="M383.715 15.1611L378.857 10.9648L370.177 49.7229L379.906 49.5217L375.379 46.8487L383.715 15.1611Z" fill="#DAFF6A"/>
<path d="M249.851 50.8872L253.874 21.8726L239.805 27.9658L240.582 24.1144L234.56 22.7204L229.89 51.9362L235.207 50.8872L238.598 34.0302L245.985 31.2567L242.407 51.9362L249.851 50.8872Z" fill="#DAFF6A"/>
<path d="M420.719 50.8867L424.067 21.4697L410.703 27.7641L411.436 24.114L405.472 22.4038L400.744 51.9358L406.075 50.8867L409.452 34.0298L416.839 31.2562L413.261 51.9358L420.719 50.8867Z" fill="#DAFF6A"/>
<path d="M178.859 16.6988L180.08 9.49902L172.78 11.5972L173.929 19.0412L178.859 16.6988Z" fill="#DAFF6A"/>
<path d="M223.653 22.9215L218.767 52.0368L224.271 51.0883L231.442 21.2114L223.653 22.9215Z" fill="#DAFF6A"/>
<path d="M231.671 16.6988L232.893 9.49902L225.578 11.5972L226.728 19.0412L231.671 16.6988Z" fill="#DAFF6A"/>
<path d="M489.211 18.754L479.582 17.2163L467.741 28.5549L476.607 42.4083L458.859 59.5095L460.886 60.07L485.287 41.0574L476.923 29.0866L489.211 18.754Z" fill="#DAFF6A"/>
<path d="M188.76 26.8877L215.734 0L205.746 7.71711L200.889 8.56499L179.347 25.8243L189.436 39.9221L156.325 78.91L198.115 38.5856L188.76 26.8877Z" fill="#DAFF6A"/>
<path d="M294.831 44.0464L300.737 27.8075L312.78 28.8853L316.114 19.9897L296.182 21.3693L285.303 53.1288L309.935 46.3314L310.165 38.0107L294.831 44.0464Z" fill="#DAFF6A"/>
<path d="M339.912 26.8305L332.885 52.0368L350 47.7831L357.976 50.0824L354.01 45.4838L358.45 25.6377L339.912 26.8305ZM344.137 31.774L350.633 31.6591L348.937 42.8108L341.062 44.564L344.123 31.774H344.137Z" fill="#DAFF6A"/>
<path d="M34.5617 11.2524L24.6603 38.212L19.7024 24.761L11.8128 39.9653L9.58532 15.7936L14.069 11.2524H0L9.13982 55.9025L18.682 38.3845L24.7178 56.3623L45.3686 11.2524H34.5617Z" fill="#DAFF6A"/>
<path d="M42.9976 42.1208L57.2534 37.7952L54.2786 28.2961L46.1304 22.4185L35.6685 41.2154L41.9485 51.6486L53.905 45.4117L54.3361 43.8309L44.2909 45.7854L42.9976 42.1064V42.1208ZM47.8118 30.1068L50.4273 31.8601L51.1602 34.8636L43.2131 37.0192L47.7974 30.1068H47.8118Z" fill="#DAFF6A"/>
<path d="M387.25 42.1208L401.505 37.7952L398.531 28.2961L390.382 22.4185L379.92 41.2154L386.2 51.6486L398.157 45.4117L398.588 43.8309L388.543 45.7854L387.25 42.1064V42.1208ZM392.064 30.1068L394.679 31.8601L395.412 34.8636L387.465 37.0192L392.049 30.1068H392.064Z" fill="#DAFF6A"/>
<path d="M464.952 43.8453L454.907 45.7997L453.614 42.1208L467.87 37.7952L464.895 28.2961L456.747 22.4185L446.285 41.2154L452.565 51.6486L464.521 45.4117L464.952 43.8309V43.8453ZM458.428 30.1068L461.043 31.8601L461.776 34.8636L453.829 37.0192L458.414 30.1068H458.428Z" fill="#DAFF6A"/>
<path d="M81.6978 32.3486L67.442 25.5799L70.0431 13.1348L63.3463 10.1313L56.5776 53.2293L71.825 46.2882L81.6978 32.3486ZM63.4756 44.6069L66.1486 31.8744L72.6873 35.5245L68.8359 41.6896L63.49 44.6212L63.4756 44.6069Z" fill="#DAFF6A"/>
<path d="M85.7935 12.6464L81.4392 21.7L96.2555 19.3432L82.3014 35.4529L92.7921 34.9068L67.3989 67.1836L68.2324 67.7728L109.893 28.1094L96.3129 28.9573L112.035 11.1519L85.7935 12.6464Z" fill="#DAFF6A"/>
</g>
<defs>
<clipPath id="clip0_617_835">
<rect width="489.21" height="78.91" fill="white"/>
</clipPath>
</defs>
</svg>
