<svg width="467" height="93" viewBox="0 0 467 93" fill="none" xmlns="http://www.w3.org/2000/svg">
<g clip-path="url(#clip0_617_857)">
<path d="M42.3239 7.89209L30.4388 40.2355L24.4962 24.1039L15.0282 42.3588L12.3574 13.3405L17.7391 7.89209H0.859619L11.8233 61.4551L23.2677 40.4358L30.5189 62.0159L55.2773 7.89209H42.3239Z" fill="#DAFF6A"/>
<path d="M71.7427 38.2326L56.933 19.5503L42.7244 45.0565L59.7908 58.6642L62.0476 55.3925L52.7666 44.9363L71.756 38.2459L71.7427 38.2326ZM57.8011 30.8211L61.9007 35.4683L53.0203 38.8068L57.8011 30.8211Z" fill="#DAFF6A"/>
<path d="M98.8916 32.7442L81.5447 25.1725L84.1888 10.1625L78.6736 7.14453L69.5662 58.7578L87.5807 49.8507L98.8782 32.7575L98.8916 32.7442ZM77.4851 48.128L80.196 32.7575L89.1031 36.8839L83.7882 45.3504L77.4985 48.1414L77.4851 48.128Z" fill="#DAFF6A"/>
<path d="M133.398 10.563L103.338 12.3391L100.414 23.2226L114.476 20.4049L97.7297 39.7282L110.323 39.0738L79.8486 77.7871L80.8635 78.5083L130.848 30.9145L114.542 31.9294L133.398 10.563Z" fill="#DAFF6A"/>
<path d="M155.98 12.0185L147.433 7.31787L134.6 27.7495L156.02 26.748L158.09 20.6986H147.22L155.98 12.0185Z" fill="#DAFF6A"/>
<path d="M154.177 37.1644L156.26 31.1284H134.787L133.545 38.1793L140.249 37.8455L139.595 41.5446H132.958L131.355 50.6119L138.166 49.6237L134.988 67.6784L153.389 58.1436L152.935 55.6998L142.906 57.0619L145.163 48.6222L152.348 47.5806L154.418 41.5446H147.073L148.168 37.4582L154.177 37.1644Z" fill="#DAFF6A"/>
<path d="M173.1 19.3234L183.97 9.74854L176.091 4.35352L159.839 26.3743H178.121L172.726 58.8513L161.455 65.0876L160.974 67.8519L178.174 66.0625L190.62 18.3218L173.1 19.3234Z" fill="#DAFF6A"/>
<path d="M173.327 47.6604L164.794 31.5688L159.238 38.8601L168.292 51.9337L173.327 47.6604Z" fill="#DAFF6A"/>
<path d="M206.431 20.0711H220.627L214.07 26.8282L196.723 28.0301L194.213 53.7099L232.338 52.7083L240.244 25.0121L223.952 26.1472L238.842 14.0351H215.232L228.025 5.24813L216.567 0L193.531 26.0804L195.147 27.8164L206.431 20.0711ZM210.384 47.6605H200.315L200.769 43.3872H211.132L210.384 47.6605ZM212.094 37.9521L201.317 38.2993L201.878 33.0646H212.948L212.08 37.9655L212.094 37.9521ZM226.182 47.6605H215.726L216.901 43.3872H227.531L226.182 47.6605ZM230.776 33.0646L229.414 37.4046L218.45 37.7518L219.732 33.0646H230.776Z" fill="#DAFF6A"/>
<path d="M237.92 55.7666L188.991 59.1852L187.495 67.6784L236.411 60.6408L237.92 55.7666Z" fill="#DAFF6A"/>
<path d="M288.906 32.1563H265.082L273.776 21.4063H289.574L285.127 27.9497H290.442L302.727 15.3703H278.65L288.198 3.55195L277.555 1.2417L267.753 15.3703H248.296L245.065 27.9497H249.138L254.279 21.4063H263.56L256.095 32.1563H244.33L241.9 40.2087L250.927 39.6078L245.746 47.0861L257.577 55.0718L226.035 91.6084L226.756 92.3028L262.091 58.1031L280.319 70.4155L284.352 65.2342L266.898 53.4426L288.906 32.1429V32.1563ZM261.891 50.0774L254.586 45.1497L259.527 39.0336L272.147 38.1923L261.891 50.0774Z" fill="#DAFF6A"/>
<path d="M333.175 36.2028L333.882 33.5988L341.28 37.7519L343.671 34.627L321.316 16.6926L327.686 11.1774L319.006 5.31494L286.596 42.8798L288.853 44.7627L298.427 36.4832L298.2 37.7519L312.89 37.1109L311.514 44.9096H297.439L295.77 51.7202L310.486 50.7453L309.071 58.7978H290.455L289.08 66.5565L333.321 63.9525L333.709 58.7978H315.093L316.589 50.3447L330.824 49.3966L331.612 44.9096H317.537L318.966 36.8438L333.148 36.2162L333.175 36.2028ZM304.61 31.1283L314.399 22.6618L330.53 31.7025L304.61 31.1283Z" fill="#DAFF6A"/>
<path d="M350.401 37.2976L343.177 40.6361L341.467 50.3311L349.319 44.7225L347.303 58.6106L341.855 63.8187L341.574 65.4078L353.045 60.2933L356.798 39.3675L361.619 35.9222L362.353 31.7958L357.773 33.9057L359.589 23.8368L363.889 23.1023L364.703 18.4551H360.55L361.846 11.1905L354.674 7.93213L353.152 18.4551H347.089L345.727 26.1871L352.177 25.092L350.401 37.2976Z" fill="#DAFF6A"/>
<path d="M374.332 13.621L372.542 24.9586L367.481 19.8974L363.982 27.3489L371.22 33.3315L370.512 37.7784L359.936 43.1868L363.181 49.3831L369.324 45.27L368.109 52.9486L341.067 80.1908L341.881 81.3125L374.692 55.6194L383.118 9.8418L374.332 13.621Z" fill="#DAFF6A"/>
<path d="M399.023 45.9645L402.282 37.7518L389.515 37.0574L390.156 33.6922L405.18 26.2674L403.377 17.5205L391.679 25.5863L395.578 4.8208L386.177 9.85527L376.882 68.8266L399.077 54.3909L398.142 52.7617L385.749 57.1152L388.313 43.5074L399.023 45.9645Z" fill="#DAFF6A"/>
<path d="M433.343 35.3213L423.1 36.3229L424.997 27.2288L435.399 25.693L436.735 18.7089L426.319 20.8589L429.043 7.81201L419.468 10.2424L416.704 36.9638L407.636 37.8586L404.178 63.1778L428.068 59.6523L433.356 35.348L433.343 35.3213ZM423.14 53.189L412.123 55.2989L413.392 45.0564L424.917 43.0533L423.127 53.189H423.14Z" fill="#DAFF6A"/>
<path d="M465.219 49.7037L455.845 57.7428L453.855 45.6842L462.508 37.7786L458.182 32.477L452.626 38.3261L451.371 30.7277L458.235 28.8581L458.141 22.9156L450.316 24.3711L446.978 4.1665L438.297 8.8137L441.796 25.9603L435.894 27.0553L435.627 35.0009L443.225 32.9444L445.802 45.5239L412.778 80.2711L414.14 81.9537L447.098 51.8537L451.865 75.1698L466.141 50.1444L465.219 49.7037Z" fill="#DAFF6A"/>
<path d="M462.388 17.4804L459.049 8.22607L451.384 11.4978L456.739 20.7655L462.388 17.4804Z" fill="#DAFF6A"/>
</g>
<defs>
<clipPath id="clip0_617_857">
<rect width="465.281" height="92.3164" fill="white" transform="translate(0.859619)"/>
</clipPath>
</defs>
</svg>
