<svg width="35" height="33" viewBox="0 0 35 33" fill="none" xmlns="http://www.w3.org/2000/svg">
<path d="M32.9582 1L19.8241 10.7183L22.2665 5.09986L32.9582 1Z" fill="#E17726" stroke="#E17726" stroke-width="0.25" stroke-linecap="round" stroke-linejoin="round"/>
<path d="M2.04187 1L15.0487 10.809L12.7335 5.09986L2.04187 1Z" fill="#E27625" stroke="#E27625" stroke-width="0.25" stroke-linecap="round" stroke-linejoin="round"/>
<path d="M28.2291 23.5335L24.7545 28.8168L32.2447 30.8637L34.4342 23.6392L28.2291 23.5335Z" fill="#E27625" stroke="#E27625" stroke-width="0.25" stroke-linecap="round" stroke-linejoin="round"/>
<path d="M0.5834 23.6392L2.7553 30.8637L10.2455 28.8168L6.77093 23.5335L0.5834 23.6392Z" fill="#E27625" stroke="#E27625" stroke-width="0.25" stroke-linecap="round" stroke-linejoin="round"/>
<path d="M9.86294 14.6984L7.78345 17.8064L15.1742 18.1267L14.9351 10.2204L9.86294 14.6984Z" fill="#E27625" stroke="#E27625" stroke-width="0.25" stroke-linecap="round" stroke-linejoin="round"/>
<path d="M25.1373 14.6984L19.9929 10.1299L19.8262 18.1267L27.2169 17.8064L25.1373 14.6984Z" fill="#E27625" stroke="#E27625" stroke-width="0.25" stroke-linecap="round" stroke-linejoin="round"/>
<path d="M10.2455 28.8168L14.7335 26.6672L10.8638 23.6919L10.2455 28.8168Z" fill="#E27625" stroke="#E27625" stroke-width="0.25" stroke-linecap="round" stroke-linejoin="round"/>
<path d="M20.2666 26.6672L24.7546 28.8168L24.1363 23.6919L20.2666 26.6672Z" fill="#E27625" stroke="#E27625" stroke-width="0.25" stroke-linecap="round" stroke-linejoin="round"/>
<path d="M24.7546 28.8168L20.2666 26.6672L20.6372 29.5369L20.6015 30.7733L24.7546 28.8168Z" fill="#D5BFB2" stroke="#D5BFB2" stroke-width="0.25" stroke-linecap="round" stroke-linejoin="round"/>
<path d="M10.2455 28.8168L14.3986 30.7733L14.3805 29.5369L14.7335 26.6672L10.2455 28.8168Z" fill="#D5BFB2" stroke="#D5BFB2" stroke-width="0.25" stroke-linecap="round" stroke-linejoin="round"/>
<path d="M14.4629 21.8083L10.7477 20.7274L13.3698 19.5637L14.4629 21.8083Z" fill="#233447" stroke="#233447" stroke-width="0.25" stroke-linecap="round" stroke-linejoin="round"/>
<path d="M20.5372 21.8083L21.6303 19.5637L24.2524 20.7274L20.5372 21.8083Z" fill="#233447" stroke="#233447" stroke-width="0.25" stroke-linecap="round" stroke-linejoin="round"/>
<path d="M10.2455 28.8168L10.8995 23.5335L6.77094 23.6392L10.2455 28.8168Z" fill="#CC6228" stroke="#CC6228" stroke-width="0.25" stroke-linecap="round" stroke-linejoin="round"/>
<path d="M24.1006 23.5335L24.7545 28.8168L28.2291 23.6392L24.1006 23.5335Z" fill="#CC6228" stroke="#CC6228" stroke-width="0.25" stroke-linecap="round" stroke-linejoin="round"/>
<path d="M27.2169 17.8064L19.8262 18.1267L20.5372 21.8083L21.6303 19.5637L24.2524 20.7274L27.2169 17.8064Z" fill="#CC6228" stroke="#CC6228" stroke-width="0.25" stroke-linecap="round" stroke-linejoin="round"/>
<path d="M10.7477 20.7274L13.3698 19.5637L14.4629 21.8083L15.1742 18.1267L7.78345 17.8064L10.7477 20.7274Z" fill="#CC6228" stroke="#CC6228" stroke-width="0.25" stroke-linecap="round" stroke-linejoin="round"/>
<path d="M7.78345 17.8064L10.8638 23.6919L10.7477 20.7274L7.78345 17.8064Z" fill="#E27525" stroke="#E27525" stroke-width="0.25" stroke-linecap="round" stroke-linejoin="round"/>
<path d="M24.2524 20.7274L24.1363 23.6919L27.2169 17.8064L24.2524 20.7274Z" fill="#E27525" stroke="#E27525" stroke-width="0.25" stroke-linecap="round" stroke-linejoin="round"/>
<path d="M15.1742 18.1267L14.4629 21.8083L15.3432 26.2863L15.5456 20.4071L15.1742 18.1267Z" fill="#E27525" stroke="#E27525" stroke-width="0.25" stroke-linecap="round" stroke-linejoin="round"/>
<path d="M19.8262 18.1267L19.4729 20.3895L19.6568 26.2863L20.5372 21.8083L19.8262 18.1267Z" fill="#E27525" stroke="#E27525" stroke-width="0.25" stroke-linecap="round" stroke-linejoin="round"/>
<path d="M20.5372 21.8083L19.6568 26.2863L20.2666 26.6672L24.1363 23.6919L24.2524 20.7274L20.5372 21.8083Z" fill="#F5841F" stroke="#F5841F" stroke-width="0.25" stroke-linecap="round" stroke-linejoin="round"/>
<path d="M10.7477 20.7274L10.8638 23.6919L14.7335 26.6672L15.3432 26.2863L14.4629 21.8083L10.7477 20.7274Z" fill="#F5841F" stroke="#F5841F" stroke-width="0.25" stroke-linecap="round" stroke-linejoin="round"/>
<path d="M20.6015 30.7733L20.6372 29.5369L20.2847 29.2343H14.7154L14.3805 29.5369L14.3986 30.7733L10.2455 28.8168L11.6638 29.9804L14.6614 32.0001H20.3206L23.3363 29.9804L24.7546 28.8168L20.6015 30.7733Z" fill="#C0AC9D" stroke="#C0AC9D" stroke-width="0.25" stroke-linecap="round" stroke-linejoin="round"/>
<path d="M20.2666 26.6672L19.6568 26.2863H15.3432L14.7335 26.6672L14.3805 29.5369L14.7154 29.2343H20.2847L20.6372 29.5369L20.2666 26.6672Z" fill="#161616" stroke="#161616" stroke-width="0.25" stroke-linecap="round" stroke-linejoin="round"/>
<path d="M33.5765 11.3532L34.6696 6.1777L32.9582 1L20.2666 10.4157L25.1373 14.6984L32.0597 16.6901L33.5946 14.9077L32.9225 14.4211L33.9975 13.4458L33.1887 12.8181L34.2638 11.9839L33.5765 11.3532Z" fill="#763E1A" stroke="#763E1A" stroke-width="0.25" stroke-linecap="round" stroke-linejoin="round"/>
<path d="M0.330566 6.1777L1.44172 11.3532L0.718328 11.9839L1.81143 12.8181L1.00262 13.4458L2.07769 14.4211L1.40559 14.9077L2.94047 16.6901L9.86295 14.6984L14.7336 10.4157L2.04195 1L0.330566 6.1777Z" fill="#763E1A" stroke="#763E1A" stroke-width="0.25" stroke-linecap="round" stroke-linejoin="round"/>
<path d="M32.0597 16.6901L25.1373 14.6984L27.2169 17.8064L24.1363 23.6919L28.2291 23.6392H34.4342L32.0597 16.6901Z" fill="#F5841F" stroke="#F5841F" stroke-width="0.25" stroke-linecap="round" stroke-linejoin="round"/>
<path d="M9.86294 14.6984L2.94046 16.6901L0.5834 23.6392H6.77093L10.8638 23.6919L7.78345 17.8064L9.86294 14.6984Z" fill="#F5841F" stroke="#F5841F" stroke-width="0.25" stroke-linecap="round" stroke-linejoin="round"/>
<path d="M19.8262 18.1267L20.2666 10.4157L22.2665 5.09986H12.7335L14.7336 10.4157L15.1742 18.1267L15.3252 20.4247L15.3432 26.2863H19.6568L19.6748 20.4247L19.8262 18.1267Z" fill="#F5841F" stroke="#F5841F" stroke-width="0.25" stroke-linecap="round" stroke-linejoin="round"/>
</svg>
