<?xml version="1.0" standalone="no"?>
<!DOCTYPE svg PUBLIC "-//W3C//DTD SVG 1.1//EN" "http://www.w3.org/Graphics/SVG/1.1/DTD/svg11.dtd">
<svg xmlns="http://www.w3.org/2000/svg" id="Layer_1" data-name="Layer 1" viewBox="0 0 1000 154" width="1000" height="154">
  <defs>
    <style>
      .cls-1 {
        fill: #fff;
      }
    </style>
  </defs>
  <path class="cls-1" d="M20.65,61.79v21.03c0,5.67,4.54,10.44,10.11,10.44h71.78v20.73H30.76c-16.85,0-30.76-13.87-30.76-31.18v-21.03c0-17.16,13.91-31.18,30.76-31.18h71.78v20.89H30.76c-5.57,0-10.11,4.62-10.11,10.29Z"/>
  <path class="cls-1" d="M273.41,113.93h-20.65V30.24h20.65v83.69Z"/>
  <path class="cls-1" d="M310.56,113.93h-20.36V30.54h71.63c16.99,0,30.91,14.02,30.91,31.18v52.21h-20.65v-52.21c0-5.67-4.54-10.29-10.25-10.29h-51.27v62.5Z"/>
  <path class="cls-1" d="M602.63,113.93h-51.27v31.48h-20.36V30.54h71.63c16.99,0,30.91,14.02,30.91,31.18v21.03c0,17.31-13.92,31.18-30.91,31.18ZM551.36,93.19h51.27c5.71,0,10.25-4.77,10.25-10.44v-21.03c0-5.67-4.54-10.29-10.25-10.29h-51.27v41.77Z"/>
  <path class="cls-1" d="M792.46,61.72v21.03c0,5.67,4.54,10.44,10.11,10.44h71.78v20.73h-71.78c-16.85,0-30.76-13.87-30.76-31.18v-21.03c0-17.16,13.92-31.18,30.76-31.18h71.78v20.89h-71.78c-5.57,0-10.11,4.62-10.11,10.29Z"/>
  <g>
    <path class="cls-1" d="M202.07,8.6h-50.42c-20.09,0-36.37,16.28-36.37,36.37v48.69c0,8.21,2.6,15.8,7.02,22.02l-8.31,8.31c-2.15,2.15-2.15,5.64,0,7.79l9.21,9.21c.95.95,2.48.95,3.43,0l12.14-12.14c4.5,1.87,9.44,2.91,14.62,2.91h48.69c20.09,0,36.37-16.28,36.37-36.37v-50.42c0-20.09-16.28-36.37-36.37-36.37ZM140.21,127.65l-14.44-14.44,12.83-12.83c-3.56-5.14-5.65-11.37-5.65-18.09v-25.95c0-16.61,13.46-30.07,30.07-30.07h27.67c16.61,0,30.07,13.46,30.07,30.07v27.67c0,16.61-13.46,30.07-30.07,30.07h-25.95c-3.32,0-6.51-.51-9.52-1.45l-15.02,15.02Z"/>
    <rect class="cls-1" x="153.44" y="45.25" width="47.88" height="47.88" rx="9.87" ry="9.87"/>
  </g>
  <path class="cls-1" d="M725.37,30.3v-.06h-.98s-.09,0-.13,0h-39.8v.29h-1.22c-16.75,0-30.59,13.87-30.75,30.89h-.02v21.33c0,17.31,13.92,31.18,30.76,31.18h61.41v-20.73h-61.41c-5.57,0-10.11-4.77-10.11-10.44h81.88v-21.33c0-16.77-13.31-30.52-29.65-31.12ZM673.16,61.42c.16-5.53,4.61-9.99,10.08-9.99l41.09-.29c5.53.04,10.04,4.64,10.04,10.29h-61.2Z"/>
  <path class="cls-1" d="M512.07,30.54v20.89h-76.9c-2.78,0-5.13,2.24-5.13,5.07,0,2.98,2.34,5.22,5.13,5.22h51.27c14.21,0,25.63,11.79,25.63,26.25s-11.43,25.96-25.63,25.96h-76.9v-20.73h76.9c2.78,0,5.13-2.39,5.13-5.22,0-2.98-2.35-5.22-5.13-5.22h-51.27c-14.21,0-25.63-11.63-25.63-26.25s11.42-25.96,25.63-25.96h76.9Z"/>
  <path class="cls-1" d="M925.2,82.75v-31.32h40.9v-20.89h-40.9V9.65h-20.65v20.89h-15.38v20.89h15.38v31.32c0,17.31,13.92,31.18,30.91,31.18h30.65v-20.73h-30.65c-5.71,0-10.25-4.77-10.25-10.44Z"/>
</svg>